<svg xmlns="http://www.w3.org/2000/svg" xmlns:xlink="http://www.w3.org/1999/xlink" contentStyleType="text/css" data-diagram-type="STATE" height="967px" preserveAspectRatio="none" style="width:1209px;height:967px;background:#FFFFFF;" version="1.1" viewBox="0 0 1209 967" width="1209px" zoomAndPan="magnify"><title>Crisis Guard &#8212; Operating Modes and Service Availability</title><defs/><g><g class="title" data-source-line="37"><text fill="#000000" font-family="sans-serif" font-size="14" font-weight="bold" lengthAdjust="spacing" textLength="446.3662" x="371.0928" y="22.9951">Crisis Guard &#8212; Operating Modes and Service Availability</text></g><path d="M19.5,44.2969 L1183.0517,44.2969 A12.5,12.5 0 0 1 1195.5517,56.7969 L1195.5517,103.5313 L7,103.5313 L7,56.7969 A12.5,12.5 0 0 1 19.5,44.2969" fill="#F1F1F1"/><rect fill="none" height="916.8281" rx="12.5" ry="12.5" style="stroke:#181818;stroke-width:0.5;" width="1188.5517" x="7" y="44.2969"/><line style="stroke:#181818;stroke-width:0.5;" x1="7" x2="1195.5517" y1="103.5313" y2="103.5313"/><line style="stroke:#181818;stroke-width:0.5;" x1="7" x2="1195.5517" y1="70.5938" y2="70.5938"/><text fill="#000000" font-family="sans-serif" font-size="14" lengthAdjust="spacing" textLength="156.96" x="522.7959" y="62.292">Crisis Guard operation</text><text fill="#000000" font-family="sans-serif" font-size="12" lengthAdjust="spacing" textLength="218.7539" x="12" y="81.7324">activeVerifiedDisasters : Integer = 0</text><text fill="#000000" font-family="sans-serif" font-size="12" lengthAdjust="spacing" textLength="170.7715" x="12" y="95.7012">failedMapPings : Integer = 0</text><path d="M31.5,115.5313 L1064.1079,115.5313 A12.5,12.5 0 0 1 1076.6079,128.0313 L1076.6079,141.8281 L19,141.8281 L19,128.0313 A12.5,12.5 0 0 1 31.5,115.5313" fill="#F1F1F1"/><rect fill="none" height="463.2969" rx="12.5" ry="12.5" style="stroke:#181818;stroke-width:0.5;" width="1057.6079" x="19" y="115.5313"/><line style="stroke:#181818;stroke-width:0.5;" x1="19" x2="1076.6079" y1="141.8281" y2="141.8281"/><text fill="#000000" font-family="sans-serif" font-size="14" lengthAdjust="spacing" textLength="180.2842" x="457.6619" y="133.5264">Crisis management mode</text><g id="Operation.Mode.Routine"><rect fill="#F1F1F1" height="50" rx="12.5" ry="12.5" style="stroke:#181818;stroke-width:0.5;" width="154.9072" x="338.48" y="209.8281"/><line style="stroke:#181818;stroke-width:0.5;" x1="338.48" x2="493.3872" y1="236.125" y2="236.125"/><text fill="#000000" font-family="sans-serif" font-size="14" lengthAdjust="spacing" textLength="134.9072" x="348.48" y="227.8232">Routine monitoring</text></g><g id="Operation.Mode.Watch"><rect fill="#F1F1F1" height="50" rx="12.5" ry="12.5" style="stroke:#181818;stroke-width:0.5;" width="147.8047" x="71.98" y="312.8281"/><line style="stroke:#181818;stroke-width:0.5;" x1="71.98" x2="219.7847" y1="339.125" y2="339.125"/><text fill="#000000" font-family="sans-serif" font-size="14" lengthAdjust="spacing" textLength="127.8047" x="81.98" y="330.8232">Heightened watch</text></g><g id="Operation.Mode.Active"><rect fill="#F1F1F1" height="50" rx="12.5" ry="12.5" style="stroke:#181818;stroke-width:0.5;" width="103.8223" x="308.98" y="415.8281"/><line style="stroke:#181818;stroke-width:0.5;" x1="308.98" x2="412.8023" y1="442.125" y2="442.125"/><text fill="#000000" font-family="sans-serif" font-size="14" lengthAdjust="spacing" textLength="83.8223" x="318.98" y="433.8232">Active crisis</text></g><g id="Operation.Mode.FollowUp"><rect fill="#F1F1F1" height="50" rx="12.5" ry="12.5" style="stroke:#181818;stroke-width:0.5;" width="87.2246" x="533.48" y="518.8281"/><line style="stroke:#181818;stroke-width:0.5;" x1="533.48" x2="620.7046" y1="545.125" y2="545.125"/><text fill="#000000" font-family="sans-serif" font-size="14" lengthAdjust="spacing" textLength="67.2246" x="543.48" y="536.8232">Follow-up</text></g><ellipse cx="415.98" cy="162.8281" fill="#222222" rx="10" ry="10" style="stroke:#222222;stroke-width:1;"/><!--link *start*Mode to Routine--><g class="link" data-entity-1=".start.Mode" data-entity-2="Routine" data-source-line="52" data-uid="lnk3" id="link_.start.Mode_Routine"><path d="M415.98,172.9781 C415.98,182.2481 415.98,190.9681 415.98,203.6081" fill="none" id="*start*Mode-to-Routine" style="stroke:#181818;stroke-width:1;"/><polygon fill="#181818" points="415.98,209.6081,419.98,200.6081,415.98,204.6081,411.98,200.6081,415.98,209.6081" style="stroke:#181818;stroke-width:1;"/></g><!--link Routine to Watch--><g class="link" data-entity-1="Routine" data-entity-2="Watch" data-source-line="58" data-uid="lnk4" id="link_Routine_Watch"><path d="M338.35,237.2181 C267.92,240.2981 171.47,249.7081 146.98,277.8281 C138.84,287.1781 137.4012,294.9189 138.9512,306.7589" fill="none" id="Routine-to-Watch" style="stroke:#181818;stroke-width:1;"/><polygon fill="#181818" points="139.73,312.7081,142.5279,303.2651,139.081,307.7504,134.5956,304.3035,139.73,312.7081" style="stroke:#181818;stroke-width:1;"/><text fill="#000000" font-family="sans-serif" font-size="13" lengthAdjust="spacing" textLength="186.6592" x="147.98" y="290.895">coordinator raises alert level</text></g><!--link Watch to Routine--><g class="link" data-entity-1="Watch" data-entity-2="Routine" data-source-line="59" data-uid="lnk5" id="link_Watch_Routine"><path d="M220.07,327.7081 C255.92,321.4881 298.89,311.2781 334.98,294.8281 C346.55,289.5581 347.73,285.3381 357.98,277.8281 C365.91,272.0281 369.6126,269.3303 377.6526,263.5003" fill="none" id="Watch-to-Routine" style="stroke:#181818;stroke-width:1;"/><polygon fill="#181818" points="382.51,259.9781,372.8758,262.0232,378.4622,262.9133,377.5721,268.4997,382.51,259.9781" style="stroke:#181818;stroke-width:1;"/><text fill="#000000" font-family="sans-serif" font-size="13" lengthAdjust="spacing" textLength="102.7432" x="358.98" y="290.895">threat ruled out</text></g><!--link Routine to Active--><g class="link" data-entity-1="Routine" data-entity-2="Active" data-source-line="62" data-uid="lnk6" id="link_Routine_Active"><path d="M449.63,260.0981 C454.65,265.3381 459.1,271.2981 461.98,277.8281 C483.51,326.6281 491.58,353.4581 461.98,397.8281 C450.87,414.4981 437.4648,422.6994 418.8348,428.7694" fill="none" id="Routine-to-Active" style="stroke:#181818;stroke-width:1;"/><polygon fill="#181818" points="413.13,430.6281,422.9264,431.6432,417.884,429.0792,420.4481,424.0368,413.13,430.6281" style="stroke:#181818;stroke-width:1;"/><text fill="#000000" font-family="sans-serif" font-size="13" lengthAdjust="spacing" textLength="415.9302" x="481.98" y="342.395">disaster verified [activeVerifiedDisasters &gt; 0] / publish advisory</text></g><!--link Watch to Active--><g class="link" data-entity-1="Watch" data-entity-2="Active" data-source-line="63" data-uid="lnk7" id="link_Watch_Active"><path d="M71.84,357.5881 C47.46,367.2881 30,380.7181 44.98,397.8281 C78.62,436.2381 221.91,441.1189 302.68,440.8389" fill="none" id="Watch-to-Active" style="stroke:#181818;stroke-width:1;"/><polygon fill="#181818" points="308.68,440.8181,299.6662,436.8493,303.68,440.8355,299.6939,444.8493,308.68,440.8181" style="stroke:#181818;stroke-width:1;"/><text fill="#000000" font-family="sans-serif" font-size="13" lengthAdjust="spacing" textLength="415.9302" x="45.98" y="393.895">disaster verified [activeVerifiedDisasters &gt; 0] / publish advisory</text></g><!--link Active to FollowUp--><g class="link" data-entity-1="Active" data-entity-2="FollowUp" data-source-line="66" data-uid="lnk8" id="link_Active_FollowUp"><path d="M308.74,450.5381 C268.98,459.3781 224.6,475.4081 246.98,500.8281 C265.62,521.9881 441.8008,534.9384 527.2108,540.0684" fill="none" id="Active-to-FollowUp" style="stroke:#181818;stroke-width:1;"/><polygon fill="#181818" points="533.2,540.4281,524.456,535.8957,528.209,540.1283,523.9764,543.8813,533.2,540.4281" style="stroke:#181818;stroke-width:1;"/><text fill="#000000" font-family="sans-serif" font-size="13" lengthAdjust="spacing" textLength="306.9473" x="247.98" y="496.895">response ended [activeVerifiedDisasters == 0]</text></g><!--link FollowUp to Active--><g class="link" data-entity-1="FollowUp" data-entity-2="Active" data-source-line="68" data-uid="lnk9" id="link_FollowUp_Active"><path d="M573.57,518.7281 C570.63,506.5881 565.15,492.6281 554.98,483.8281 C534.08,465.7281 469.0819,454.5761 419.0619,448.2061" fill="none" id="FollowUp-to-Active" style="stroke:#181818;stroke-width:1;"/><polygon fill="#181818" points="413.11,447.4481,421.5326,452.553,418.0699,448.0798,422.5432,444.6171,413.11,447.4481" style="stroke:#181818;stroke-width:1;"/><text fill="#000000" font-family="sans-serif" font-size="13" lengthAdjust="spacing" textLength="327.8882" x="566.98" y="496.895">new verified disaster [activeVerifiedDisasters &gt; 0]</text></g><!--link FollowUp to Routine--><g class="link" data-entity-1="FollowUp" data-entity-2="Routine" data-source-line="69" data-uid="lnk10" id="link_FollowUp_Routine"><path d="M620.64,540.2581 C704.31,534.8781 880.67,521.2281 898.98,500.8281 C961.1,431.6181 926.11,341.0781 901.98,312.8281 C850.39,252.4181 623.2085,239.271 499.5485,236.531" fill="none" id="FollowUp-to-Routine" style="stroke:#181818;stroke-width:1;"/><polygon fill="#181818" points="493.55,236.3981,502.4592,240.5965,498.5488,236.5089,502.6364,232.5985,493.55,236.3981" style="stroke:#181818;stroke-width:1;"/><text fill="#000000" font-family="sans-serif" font-size="13" lengthAdjust="spacing" textLength="132.6279" x="933.98" y="393.895">follow-up completed</text></g><line style="stroke:#181818;stroke-width:1.5;stroke-dasharray:8,10;" x1="12" x2="1183.5517" y1="583.8281" y2="583.8281"/><path d="M31.5,590.8281 L1169.0517,590.8281 A12.5,12.5 0 0 1 1181.5517,603.3281 L1181.5517,617.125 L19,617.125 L19,603.3281 A12.5,12.5 0 0 1 31.5,590.8281" fill="#F1F1F1"/><rect fill="none" height="360.2969" rx="12.5" ry="12.5" style="stroke:#181818;stroke-width:0.5;" width="1162.5517" x="19" y="590.8281"/><line style="stroke:#181818;stroke-width:0.5;" x1="19" x2="1181.5517" y1="617.125" y2="617.125"/><text fill="#000000" font-family="sans-serif" font-size="14" lengthAdjust="spacing" textLength="132.3232" x="534.1142" y="608.8232">Service availability</text><g id="Operation.CONC2.Availability.Online"><rect fill="#F1F1F1" height="50" rx="12.5" ry="12.5" style="stroke:#181818;stroke-width:0.5;" width="65.1582" x="480.52" y="685.125"/><line style="stroke:#181818;stroke-width:0.5;" x1="480.52" x2="545.6782" y1="711.4219" y2="711.4219"/><text fill="#000000" font-family="sans-serif" font-size="14" lengthAdjust="spacing" textLength="45.1582" x="490.52" y="703.1201">Online</text></g><g id="Operation.CONC2.Availability.Limited"><rect fill="#F1F1F1" height="50" rx="12.5" ry="12.5" style="stroke:#181818;stroke-width:0.5;" width="197.8643" x="159.02" y="788.125"/><line style="stroke:#181818;stroke-width:0.5;" x1="159.02" x2="356.8843" y1="814.4219" y2="814.4219"/><text fill="#000000" font-family="sans-serif" font-size="14" lengthAdjust="spacing" textLength="177.8643" x="169.02" y="806.1201">Limited: map unavailable</text></g><g id="Operation.CONC2.Availability.Unavailable"><rect fill="#F1F1F1" height="50" rx="12.5" ry="12.5" style="stroke:#181818;stroke-width:0.5;" width="262.8057" x="397.52" y="891.125"/><line style="stroke:#181818;stroke-width:0.5;" x1="397.52" x2="660.3257" y1="917.4219" y2="917.4219"/><text fill="#000000" font-family="sans-serif" font-size="14" lengthAdjust="spacing" textLength="242.8057" x="407.52" y="909.1201">Unavailable: backend unreachable</text></g><ellipse cx="513.02" cy="638.125" fill="#222222" rx="10" ry="10" style="stroke:#222222;stroke-width:1;"/><!--link *start*Availability to Online--><g class="link" data-entity-1=".start.Availability" data-entity-2="Online" data-source-line="78" data-uid="lnk12" id="link_.start.Availability_Online"><path d="M513.02,648.275 C513.02,657.545 513.02,666.265 513.02,678.905" fill="none" id="*start*Availability-to-Online" style="stroke:#181818;stroke-width:1;"/><polygon fill="#181818" points="513.02,684.905,517.02,675.905,513.02,679.905,509.02,675.905,513.02,684.905" style="stroke:#181818;stroke-width:1;"/></g><!--link Online to Limited--><g class="link" data-entity-1="Online" data-entity-2="Limited" data-source-line="84" data-uid="lnk13" id="link_Online_Limited"><path d="M480.26,711.705 C381.54,713.775 91.96,722.445 64.02,753.125 C30,790.475 89.0992,804.0057 152.8592,809.1157" fill="none" id="Online-to-Limited" style="stroke:#181818;stroke-width:1;"/><polygon fill="#181818" points="158.84,809.595,150.1883,804.8888,153.856,809.1956,149.5492,812.8632,158.84,809.595" style="stroke:#181818;stroke-width:1;"/><text fill="#000000" font-family="sans-serif" font-size="13" lengthAdjust="spacing" textLength="268.8994" x="65.02" y="766.1919">map provider fails [failedMapPings &gt;= 3]</text></g><!--link Limited to Online--><g class="link" data-entity-1="Limited" data-entity-2="Online" data-source-line="85" data-uid="lnk14" id="link_Limited_Online"><path d="M304,787.985 C314.04,782.365 324.5,776.235 334.02,770.125 C344.72,763.255 345.57,758.655 357.02,753.125 C397.31,733.675 442.0474,723.2318 474.4974,717.3118" fill="none" id="Limited-to-Online" style="stroke:#181818;stroke-width:1;"/><polygon fill="#181818" points="480.4,716.235,470.8282,713.9152,475.4812,717.1324,472.264,721.7853,480.4,716.235" style="stroke:#181818;stroke-width:1;"/><text fill="#000000" font-family="sans-serif" font-size="13" lengthAdjust="spacing" textLength="298.6128" x="358.02" y="766.1919">map provider recovers [failedMapPings == 0]</text></g><!--link Online to Unavailable--><g class="link" data-entity-1="Online" data-entity-2="Unavailable" data-source-line="87" data-uid="lnk15" id="link_Online_Unavailable"><path d="M545.68,716.045 C583.9,722.555 643.66,735.315 657.02,753.125 C689.02,795.795 688.31,829.935 657.02,873.125 C651.87,880.225 650.4296,882.7491 643.2796,887.6791" fill="none" id="Online-to-Unavailable" style="stroke:#181818;stroke-width:1;"/><polygon fill="#181818" points="638.34,891.085,648.02,889.2692,642.4563,888.2467,643.4788,882.6831,638.34,891.085" style="stroke:#181818;stroke-width:1;"/><text fill="#000000" font-family="sans-serif" font-size="13" lengthAdjust="spacing" textLength="203.436" x="681.02" y="817.6919">backend becomes unreachable</text></g><!--link Limited to Unavailable--><g class="link" data-entity-1="Limited" data-entity-2="Unavailable" data-source-line="88" data-uid="lnk16" id="link_Limited_Unavailable"><path d="M176.39,838.205 C158.7,847.425 148.55,859.155 161.02,873.125 C176.93,890.955 292.4122,901.8525 391.5122,908.1825" fill="none" id="Limited-to-Unavailable" style="stroke:#181818;stroke-width:1;"/><polygon fill="#181818" points="397.5,908.565,388.7733,903.9994,392.5102,908.2463,388.2633,911.9832,397.5,908.565" style="stroke:#181818;stroke-width:1;"/><text fill="#000000" font-family="sans-serif" font-size="13" lengthAdjust="spacing" textLength="203.436" x="162.02" y="869.1919">backend becomes unreachable</text></g><!--link Unavailable to Online--><g class="link" data-entity-1="Unavailable" data-entity-2="Online" data-source-line="90" data-uid="lnk17" id="link_Unavailable_Online"><path d="M660.53,910.425 C789.64,900.945 957.94,872.595 889.02,788.125 C845.68,735.015 635.12,717.8807 551.77,713.0707" fill="none" id="Unavailable-to-Online" style="stroke:#181818;stroke-width:1;"/><polygon fill="#181818" points="545.78,712.725,554.5346,717.2369,550.7717,713.0131,554.9955,709.2502,545.78,712.725" style="stroke:#181818;stroke-width:1;"/><text fill="#000000" font-family="sans-serif" font-size="13" lengthAdjust="spacing" textLength="266.5317" x="905.02" y="817.6919">backend recovers [failedMapPings == 0]</text></g><!--link Unavailable to Limited--><g class="link" data-entity-1="Unavailable" data-entity-2="Limited" data-source-line="91" data-uid="lnk18" id="link_Unavailable_Limited"><path d="M432.8,891.075 C417.81,885.965 402.75,879.995 389.02,873.125 C377.65,867.435 377.15,862.265 366.02,856.125 C354.04,849.525 346.3488,845.7478 333.3688,840.4078" fill="none" id="Unavailable-to-Limited" style="stroke:#181818;stroke-width:1;"/><polygon fill="#181818" points="327.82,838.125,334.6213,845.2484,332.444,840.0273,337.665,837.85,327.82,838.125" style="stroke:#181818;stroke-width:1;"/><text fill="#000000" font-family="sans-serif" font-size="13" lengthAdjust="spacing" textLength="266.5317" x="390.02" y="869.1919">backend recovers [failedMapPings &gt;= 3]</text></g><!--SRC=[lLLHQzim47xFhpZwKXYqwxQtG0fTkhM3XOoMTWyX3nVx4el9af5afzqex4Vi5-wNx2JPiUEiwmRfJ32ET7VwlhllJauuIJ0smWeB5oMQ57v-_m7JWWmweLOmqIbPG9N2DPbA90Hd5Gg92o65knyC3c6qruS3NaYzG0dNzzPH3cEj7DqvM0kNmRixHoeb1kFG4ToY4RYGPFSFmuO33hOoesDMj3e0j4sEj89l0m3-7JuE3phMGy34YOfkoOYbeFHSM6IcnlBE1-Qw8WCZEEdvB3dfb4wm-CHLwPk6mu_s-8I0K-ColTAAQt55Am_ZrH3UbbOeiXRETOv2jHZjSu3OhaAE2bUKatAGion35Rm-Gm40PY_cVFufNEcIfKjXhGvGBx6R4auRJc5m_etb9ObLnbNa8gxH9Lcm- -o_kbPdeOAG15p19AvqRTvhAVNwg2p2VlntKmo2IOF7mmt1kQ29rYOL2XaV61JMjvqauq1IHJAuHTCEHtPpcI5qO4gM1_1gC0olGxXntALVVHj7J5KjIE32HKbpTwKYI6nsV7mytm5N4nr2MgiKgbgsC7jCngTmCeUNK9GBAMm6c5R2QdFVOx3lo3NbCIgb7N0RWY5Ri2u9IiLvu6JAklCsHtA63NaxBIjAGuGQbaVOb8mnRaB5zduKu8YxSTx2sKJO8gnetNBTiFyZwTrehG2MZSvOGNaXoGKc3rvet4F_QpIyzXDfQHYpAHDNSbel2IMFxCccvPvnG3Ht4tRkfjYMdONUc9WgsUlzk1A7-yxcHv4BJksGfr31YgfFaj6ytkpQtxGcGrXWyiLBibJSh4csyUiO3PxgsINFXIMMqe7JF1TGCL_V_3RJCfuSGGToDI28S0kZAv6I2RU8XLdlCZaTmPieiSQjpKy_Wg54LrwM_I0zwNUmT4X2cue51yfvndLIiWFXtpp3g-konQBn_Wi2_HXjCfyCqgJoOV3m2m00]--></g></svg>